<svg width="390" height="554" viewBox="0 0 390 554" fill="none" xmlns="http://www.w3.org/2000/svg">
<path opacity="0.54" d="M143.279 209.01C105.454 149.893 73.9578 177.642 62.9381 198.906L61.0902 244.871L294.853 247.91L291.035 216.226C264.299 149.992 231.806 186.211 218.901 212.6C210.412 201.311 187.428 205.27 176.998 208.66C173.223 203.448 162.248 206.625 157.232 208.865C153.457 203.654 146.357 206.79 143.279 209.01Z" fill="url(#paint0_linear_81_212)"/>
<path d="M-7.31201 240.4L392.456 236.244L394.585 554.857L-1.63455 558.975L-7.31201 240.4Z" fill="url(#paint1_linear_81_212)"/>
<path d="M225.148 244.359C213.99 244.475 214.383 252.486 215.974 256.477L392.647 254.64L390.068 6.55723L360.518 71.3511C299.517 129.914 346.18 145.824 312.61 159.289C279.039 172.754 284.233 225.163 276.108 226.341C269.608 227.283 252.546 233.508 244.828 236.503C242.917 239.073 236.306 244.243 225.148 244.359Z" fill="url(#paint2_linear_81_212)"/>
<path d="M132.287 257.347L-0.21729 258.724L-2.85974 4.53018C-2.86637 4.37597 -2.86796 4.22717 -2.86437 4.08394L-2.85974 4.53018C-2.35992 16.1467 26.7617 58.4257 26.7617 58.4257C24.7097 84.6789 25.0816 142.822 42.9852 165.371C65.3647 193.556 57.6977 126.963 82.0007 228.359C98.6796 230.007 132.087 238.112 132.287 257.347Z" fill="url(#paint3_linear_81_212)"/>
<g opacity="0.22" filter="url(#filter0_f_81_212)">
<path d="M225.148 264.366C213.99 264.25 214.383 256.239 215.974 252.247L392.647 254.084L390.068 502.167L360.518 437.373C299.517 378.81 346.18 362.901 312.61 349.436C279.039 335.971 284.233 283.561 276.108 282.383C269.608 281.441 252.546 275.216 244.828 272.221C242.917 269.651 236.306 264.482 225.148 264.366Z" fill="url(#paint4_linear_81_212)"/>
<path d="M132.287 251.378L-0.217289 250L-2.85974 504.194C-2.86637 504.348 -2.86796 504.497 -2.86437 504.64L-2.85974 504.194C-2.35992 492.578 26.7617 450.299 26.7617 450.299C24.7097 424.045 25.0816 365.902 42.9852 343.354C65.3647 315.169 57.6977 381.762 82.0007 280.366C98.6796 278.717 132.087 270.612 132.287 251.378Z" fill="url(#paint5_linear_81_212)"/>
</g>
<path d="M143.501 467.035C112.95 488.332 35.1039 472.682 1.30747e-09 462.195L3.14809e-08 559L390 559L390 480.346C320.564 467.035 174.053 445.738 143.501 467.035Z" fill="url(#paint6_linear_81_212)"/>
<path d="M143.501 467.035C112.95 488.332 35.1039 472.682 1.30747e-09 462.195L3.14809e-08 559L390 559L390 480.346C320.564 467.035 174.053 445.738 143.501 467.035Z" fill="url(#paint7_linear_81_212)"/>
<path d="M-14 477.57C-13.5709 479.661 -11.0311 483.292 -7.0454 487.93M26.2756 521.171C40.1907 534.052 54.8724 546.964 65.252 555.849C63.9528 545.872 62.9134 526.84 69.1496 530.523M26.2756 521.171C27.5748 499.731 32.252 458.921 40.5669 467.209M26.2756 521.171C15.5054 511.202 5.19438 501.252 -2.30709 493.202M-2.30709 493.202C0.724409 481.852 8.08661 460.303 13.2835 464.907M-2.30709 493.202C-4.04755 491.335 -5.63677 489.57 -7.0454 487.93M-7.0454 487.93L5.48819 458M65.252 557C71.7479 551.922 81.2108 544.871 89.937 539.052M112.024 529.372C110.862 526.284 100.991 531.681 89.937 539.052M89.937 539.052C103.795 536.209 135.409 535.588 151 555.849" stroke="url(#paint8_linear_81_212)"/>
<g filter="url(#filter1_f_81_212)">
<path d="M-14 477.57C-13.5709 479.661 -11.0311 483.292 -7.0454 487.93M26.2756 521.171C40.1907 534.052 54.8724 546.964 65.252 555.849C63.9528 545.872 62.9134 526.84 69.1496 530.523M26.2756 521.171C27.5748 499.731 32.252 458.921 40.5669 467.209M26.2756 521.171C15.5054 511.202 5.19438 501.252 -2.30709 493.202M-2.30709 493.202C0.724409 481.852 8.08661 460.303 13.2835 464.907M-2.30709 493.202C-4.04755 491.335 -5.63677 489.57 -7.0454 487.93M-7.0454 487.93L5.48819 458M65.252 557C71.7479 551.922 81.2108 544.871 89.937 539.052M112.024 529.372C110.862 526.284 100.991 531.681 89.937 539.052M89.937 539.052C103.795 536.209 135.409 535.588 151 555.849" stroke="url(#paint9_linear_81_212)"/>
</g>
<path d="M306.38 572C286.177 552.532 246.349 512.256 248.658 506.894C251.544 500.192 300.608 564.341 306.38 572ZM306.38 572C299.325 555.085 282.329 520.107 270.785 515.511C256.354 509.767 310.228 562.426 306.38 572ZM349.671 558.596C313.114 528.277 240 466.682 240 462.852C240 458.065 277.519 485.831 349.671 558.596ZM349.671 558.596C323.376 531.469 269.053 473.959 262.127 460.937C253.468 444.661 333.316 517.426 349.671 558.596ZM349.671 558.596C345.181 523.171 332.354 449.64 316.962 438.916C301.57 428.193 332.354 514.235 349.671 558.596ZM349.671 560.511C345.502 526.362 348.132 455.384 392 444.661C380.456 457.108 355.828 497.703 349.671 560.511ZM349.671 560.511C353.84 532.107 368.142 477.214 392 484.873" stroke="url(#paint10_linear_81_212)"/>
<g filter="url(#filter2_f_81_212)">
<path d="M306.38 572C286.177 552.532 246.349 512.256 248.658 506.894C251.544 500.192 300.608 564.341 306.38 572ZM306.38 572C299.325 555.085 282.329 520.107 270.785 515.511C256.354 509.767 310.228 562.426 306.38 572ZM349.671 558.596C313.114 528.277 240 466.682 240 462.852C240 458.065 277.519 485.831 349.671 558.596ZM349.671 558.596C323.376 531.469 269.053 473.959 262.127 460.937C253.468 444.661 333.316 517.426 349.671 558.596ZM349.671 558.596C345.181 523.171 332.354 449.64 316.962 438.916C301.57 428.193 332.354 514.235 349.671 558.596ZM349.671 560.511C345.502 526.362 348.132 455.384 392 444.661C380.456 457.108 355.828 497.703 349.671 560.511ZM349.671 560.511C353.84 532.107 368.142 477.214 392 484.873" stroke="url(#paint11_linear_81_212)"/>
</g>
<path d="M245.634 425.737C255.549 420.303 282.065 451.397 294.084 467.623C291.831 454.039 245.634 420.077 269.296 424.605C288.225 428.227 293.709 454.793 294.084 467.623C273.803 455.925 235.718 431.171 245.634 425.737Z" fill="url(#paint12_linear_81_212)"/>
<path d="M303.098 467.623C298.967 443.095 293.183 396.756 303.098 407.624C315.492 421.209 316.619 430.265 303.098 467.623Z" fill="url(#paint13_linear_81_212)"/>
<path d="M312.112 467.623C323.38 451.02 347.492 419.85 353.802 428.001C358.573 434.163 341.746 448.048 326.11 458.695C346.47 445.836 371.83 430.361 371.83 432.529C371.83 435.925 386.478 449.51 312.112 467.623Z" fill="url(#paint14_linear_81_212)"/>
<path d="M298.591 488C287.774 480.755 255.023 476.679 240 475.547C252.77 473.661 279.662 471.019 285.07 475.547C291.831 481.208 333.521 469.887 340.281 471.019C345.689 471.925 344.037 473.661 342.535 474.415C342.535 469.887 313.239 481.585 298.591 488Z" fill="url(#paint15_linear_81_212)"/>
<path d="M294.084 467.623C282.065 451.397 255.549 420.303 245.634 425.737C235.718 431.171 273.803 455.925 294.084 467.623ZM294.084 467.623C293.709 454.793 288.225 428.227 269.296 424.605C245.634 420.077 291.831 454.039 294.084 467.623ZM312.112 467.623C323.38 451.02 347.492 419.85 353.802 428.001C360.112 436.152 328.638 457.812 312.112 467.623ZM312.112 467.623C332.018 454.793 371.83 429.812 371.83 432.529C371.83 435.925 386.478 449.51 312.112 467.623ZM303.098 467.623C298.967 443.095 293.183 396.756 303.098 407.624C315.492 421.209 316.619 430.265 303.098 467.623ZM240 475.547C255.023 476.679 287.774 480.755 298.591 488C313.239 481.585 342.535 469.887 342.535 474.415C344.037 473.661 345.689 471.925 340.281 471.019C333.521 469.887 291.831 481.208 285.07 475.547C279.662 471.019 252.77 473.661 240 475.547Z" stroke="white"/>
<path d="M294.084 467.623C282.065 451.397 255.549 420.303 245.634 425.737C235.718 431.171 273.803 455.925 294.084 467.623ZM294.084 467.623C293.709 454.793 288.225 428.227 269.296 424.605C245.634 420.077 291.831 454.039 294.084 467.623ZM312.112 467.623C323.38 451.02 347.492 419.85 353.802 428.001C360.112 436.152 328.638 457.812 312.112 467.623ZM312.112 467.623C332.018 454.793 371.83 429.812 371.83 432.529C371.83 435.925 386.478 449.51 312.112 467.623ZM303.098 467.623C298.967 443.095 293.183 396.756 303.098 407.624C315.492 421.209 316.619 430.265 303.098 467.623ZM240 475.547C255.023 476.679 287.774 480.755 298.591 488C313.239 481.585 342.535 469.887 342.535 474.415C344.037 473.661 345.689 471.925 340.281 471.019C333.521 469.887 291.831 481.208 285.07 475.547C279.662 471.019 252.77 473.661 240 475.547Z" stroke="url(#paint16_linear_81_212)"/>
<path d="M147.323 504.827C142.964 500.641 124.973 513.093 116.522 519.843C119.571 513.113 148.109 501.894 135.279 500.971C125.015 500.233 118.498 513.245 116.522 519.843C128.605 516.582 151.681 509.014 147.323 504.827Z" fill="url(#paint17_linear_81_212)"/>
<path d="M111.874 518.597C117.411 506.455 126.829 483.237 120.207 487.5C111.929 492.828 110.091 497.367 111.874 518.597Z" fill="url(#paint18_linear_81_212)"/>
<path d="M107.226 517.352C103.722 507.19 95.6175 487.703 91.2319 491.056C87.9162 493.59 94.6645 503.111 101.248 510.79C92.5357 501.312 81.6081 489.788 81.3069 490.912C80.8353 492.672 71.3956 497.689 107.226 517.352Z" fill="url(#paint19_linear_81_212)"/>
<path d="M111.368 529.781C117.952 527.521 135.406 529.934 143.31 531.423C136.987 528.68 123.488 523.596 120.07 525.195C115.798 527.195 95.8729 515.567 92.2296 515.22C89.315 514.942 89.9261 516.07 90.5959 516.669C91.2248 514.322 104.706 524.433 111.368 529.781Z" fill="url(#paint20_linear_81_212)"/>
<path d="M116.522 519.843C124.973 513.093 142.964 500.641 147.323 504.827C151.681 509.014 128.605 516.582 116.522 519.843ZM116.522 519.843C118.498 513.245 125.015 500.233 135.279 500.971C148.109 501.894 119.571 513.113 116.522 519.843ZM107.226 517.352C103.722 507.19 95.6175 487.703 91.2319 491.056C86.8463 494.408 100.068 509.983 107.226 517.352ZM107.226 517.352C98.7438 507.952 81.6842 489.504 81.3069 490.912C80.8353 492.672 71.3956 497.689 107.226 517.352ZM111.874 518.597C117.411 506.455 126.829 483.237 120.207 487.5C111.929 492.828 110.091 497.367 111.874 518.597ZM143.31 531.423C135.406 529.934 117.952 527.521 111.368 529.781C104.706 524.433 91.2248 514.322 90.5959 516.669C89.9261 516.07 89.315 514.942 92.2296 515.22C95.8729 515.567 115.798 527.195 120.07 525.195C123.488 523.596 136.987 528.68 143.31 531.423Z" stroke="white"/>
<path d="M116.522 519.843C124.973 513.093 142.964 500.641 147.323 504.827C151.681 509.014 128.605 516.582 116.522 519.843ZM116.522 519.843C118.498 513.245 125.015 500.233 135.279 500.971C148.109 501.894 119.571 513.113 116.522 519.843ZM107.226 517.352C103.722 507.19 95.6175 487.703 91.2319 491.056C86.8463 494.408 100.068 509.983 107.226 517.352ZM107.226 517.352C98.7438 507.952 81.6842 489.504 81.3069 490.912C80.8353 492.672 71.3956 497.689 107.226 517.352ZM111.874 518.597C117.411 506.455 126.829 483.237 120.207 487.5C111.929 492.828 110.091 497.367 111.874 518.597ZM143.31 531.423C135.406 529.934 117.952 527.521 111.368 529.781C104.706 524.433 91.2248 514.322 90.5959 516.669C89.9261 516.07 89.315 514.942 92.2296 515.22C95.8729 515.567 115.798 527.195 120.07 525.195C123.488 523.596 136.987 528.68 143.31 531.423Z" stroke="url(#paint21_linear_81_212)"/>
<path d="M65.5912 449.44C62.39 446.365 49.1752 455.511 42.9679 460.469C45.2072 455.526 66.1686 447.285 56.7448 446.607C49.2057 446.065 44.4189 455.622 42.9679 460.469C51.8428 458.074 68.7923 452.515 65.5912 449.44Z" fill="url(#paint22_linear_81_212)"/>
<path d="M39.5539 459.554C43.6207 450.635 50.5383 433.581 45.6743 436.712C39.5942 440.626 38.2436 443.96 39.5539 459.554Z" fill="url(#paint23_linear_81_212)"/>
<path d="M36.1398 458.639C33.566 451.175 27.6129 436.861 24.3916 439.324C21.9562 441.186 26.9129 448.179 31.7487 453.82C25.3493 446.858 17.3228 438.393 17.1016 439.218C16.7552 440.511 9.82156 444.197 36.1398 458.639Z" fill="url(#paint24_linear_81_212)"/>
<path d="M39.1823 467.769C44.0182 466.108 56.8383 467.881 62.6439 468.974C57.9998 466.96 48.084 463.225 45.5736 464.4C42.4357 465.869 27.8005 457.328 25.1245 457.073C22.9837 456.869 23.4325 457.698 23.9245 458.138C24.3865 456.414 34.2888 463.84 39.1823 467.769Z" fill="url(#paint25_linear_81_212)"/>
<path d="M42.9679 460.469C49.1752 455.511 62.39 446.365 65.5912 449.44C68.7923 452.515 51.8428 458.074 42.9679 460.469ZM42.9679 460.469C44.4189 455.622 49.2057 446.065 56.7448 446.607C66.1686 447.285 45.2072 455.526 42.9679 460.469ZM36.1398 458.639C33.566 451.175 27.6129 436.861 24.3916 439.324C21.1703 441.787 30.8815 453.227 36.1398 458.639ZM36.1398 458.639C29.9092 451.735 17.3788 438.184 17.1016 439.218C16.7552 440.511 9.82156 444.197 36.1398 458.639ZM39.5539 459.554C43.6207 450.635 50.5383 433.581 45.6743 436.712C39.5942 440.626 38.2436 443.96 39.5539 459.554ZM62.6439 468.974C56.8383 467.881 44.0182 466.108 39.1823 467.769C34.2888 463.84 24.3865 456.414 23.9245 458.138C23.4325 457.698 22.9837 456.869 25.1245 457.073C27.8005 457.328 42.4357 465.869 45.5736 464.4C48.084 463.225 57.9998 466.96 62.6439 468.974Z" stroke="white"/>
<path d="M42.9679 460.469C49.1752 455.511 62.39 446.365 65.5912 449.44C68.7923 452.515 51.8428 458.074 42.9679 460.469ZM42.9679 460.469C44.4189 455.622 49.2057 446.065 56.7448 446.607C66.1686 447.285 45.2072 455.526 42.9679 460.469ZM36.1398 458.639C33.566 451.175 27.6129 436.861 24.3916 439.324C21.1703 441.787 30.8815 453.227 36.1398 458.639ZM36.1398 458.639C29.9092 451.735 17.3788 438.184 17.1016 439.218C16.7552 440.511 9.82156 444.197 36.1398 458.639ZM39.5539 459.554C43.6207 450.635 50.5383 433.581 45.6743 436.712C39.5942 440.626 38.2436 443.96 39.5539 459.554ZM62.6439 468.974C56.8383 467.881 44.0182 466.108 39.1823 467.769C34.2888 463.84 24.3865 456.414 23.9245 458.138C23.4325 457.698 22.9837 456.869 25.1245 457.073C27.8005 457.328 42.4357 465.869 45.5736 464.4C48.084 463.225 57.9998 466.96 62.6439 468.974Z" stroke="url(#paint26_linear_81_212)"/>
<defs>
<filter id="filter0_f_81_212" x="-6.86621" y="246" width="403.513" height="262.64" filterUnits="userSpaceOnUse" color-interpolation-filters="sRGB">
<feFlood flood-opacity="0" result="BackgroundImageFix"/>
<feBlend mode="normal" in="SourceGraphic" in2="BackgroundImageFix" result="shape"/>
<feGaussianBlur stdDeviation="2" result="effect1_foregroundBlur_81_212"/>
</filter>
<filter id="filter1_f_81_212" x="-21.4897" y="450.807" width="179.886" height="113.587" filterUnits="userSpaceOnUse" color-interpolation-filters="sRGB">
<feFlood flood-opacity="0" result="BackgroundImageFix"/>
<feBlend mode="normal" in="SourceGraphic" in2="BackgroundImageFix" result="shape"/>
<feGaussianBlur stdDeviation="3.5" result="effect1_foregroundBlur_81_212"/>
</filter>
<filter id="filter2_f_81_212" x="232.5" y="430.5" width="167.999" height="149.375" filterUnits="userSpaceOnUse" color-interpolation-filters="sRGB">
<feFlood flood-opacity="0" result="BackgroundImageFix"/>
<feBlend mode="normal" in="SourceGraphic" in2="BackgroundImageFix" result="shape"/>
<feGaussianBlur stdDeviation="3.5" result="effect1_foregroundBlur_81_212"/>
</filter>
<linearGradient id="paint0_linear_81_212" x1="177.205" y1="172.636" x2="178" y2="249.125" gradientUnits="userSpaceOnUse">
<stop stop-color="#393255"/>
<stop offset="1" stop-color="#46164F"/>
</linearGradient>
<linearGradient id="paint1_linear_81_212" x1="201.172" y1="559.017" x2="194.635" y2="214.312" gradientUnits="userSpaceOnUse">
<stop stop-color="#612C7A"/>
<stop offset="0.223958" stop-color="#75448A"/>
<stop offset="0.371656" stop-color="#8B3883"/>
<stop offset="0.490476" stop-color="#7F378A"/>
<stop offset="0.629032" stop-color="#63337A"/>
<stop offset="0.677083" stop-color="#613273"/>
<stop offset="0.760417" stop-color="#723883"/>
<stop offset="0.880208" stop-color="#582660"/>
<stop offset="1" stop-color="#51204C"/>
</linearGradient>
<linearGradient id="paint2_linear_81_212" x1="193.566" y1="2.04198" x2="196.213" y2="256.682" gradientUnits="userSpaceOnUse">
<stop stop-color="#4C466F"/>
<stop offset="1" stop-color="#481550"/>
</linearGradient>
<linearGradient id="paint3_linear_81_212" x1="193.566" y1="2.04198" x2="196.213" y2="256.682" gradientUnits="userSpaceOnUse">
<stop stop-color="#4C466F"/>
<stop offset="1" stop-color="#481550"/>
</linearGradient>
<linearGradient id="paint4_linear_81_212" x1="195" y1="443.5" x2="196.213" y2="252.042" gradientUnits="userSpaceOnUse">
<stop stop-color="#352D66" stop-opacity="0"/>
<stop offset="1" stop-color="#3C0C44"/>
</linearGradient>
<linearGradient id="paint5_linear_81_212" x1="195" y1="443.5" x2="196.213" y2="252.042" gradientUnits="userSpaceOnUse">
<stop stop-color="#352D66" stop-opacity="0"/>
<stop offset="1" stop-color="#3C0C44"/>
</linearGradient>
<linearGradient id="paint6_linear_81_212" x1="195" y1="458" x2="195" y2="559" gradientUnits="userSpaceOnUse">
<stop stop-color="#282343"/>
<stop offset="1"/>
</linearGradient>
<linearGradient id="paint7_linear_81_212" x1="195" y1="458" x2="195" y2="559" gradientUnits="userSpaceOnUse">
<stop stop-color="#262047"/>
<stop offset="1" stop-color="#25062B"/>
</linearGradient>
<linearGradient id="paint8_linear_81_212" x1="68.5" y1="458" x2="68.5" y2="557" gradientUnits="userSpaceOnUse">
<stop stop-color="#FEC7CF"/>
<stop offset="1" stop-color="#EA90FE"/>
</linearGradient>
<linearGradient id="paint9_linear_81_212" x1="68.5" y1="458" x2="68.5" y2="557" gradientUnits="userSpaceOnUse">
<stop stop-color="#FEC7CF"/>
<stop offset="1" stop-color="#EA90FE"/>
</linearGradient>
<linearGradient id="paint10_linear_81_212" x1="316" y1="438" x2="316" y2="572" gradientUnits="userSpaceOnUse">
<stop stop-color="#FEC7CF"/>
<stop offset="1" stop-color="#EA90FE"/>
</linearGradient>
<linearGradient id="paint11_linear_81_212" x1="316" y1="438" x2="316" y2="572" gradientUnits="userSpaceOnUse">
<stop stop-color="#FEC7CF"/>
<stop offset="1" stop-color="#EA90FE"/>
</linearGradient>
<linearGradient id="paint12_linear_81_212" x1="306.5" y1="406" x2="306.5" y2="488" gradientUnits="userSpaceOnUse">
<stop stop-color="#FEC7CF"/>
<stop offset="1" stop-color="#EA90FE"/>
</linearGradient>
<linearGradient id="paint13_linear_81_212" x1="306.5" y1="406" x2="306.5" y2="488" gradientUnits="userSpaceOnUse">
<stop stop-color="#FEC7CF"/>
<stop offset="1" stop-color="#EA90FE"/>
</linearGradient>
<linearGradient id="paint14_linear_81_212" x1="306.5" y1="406" x2="306.5" y2="488" gradientUnits="userSpaceOnUse">
<stop stop-color="#FEC7CF"/>
<stop offset="1" stop-color="#EA90FE"/>
</linearGradient>
<linearGradient id="paint15_linear_81_212" x1="306.5" y1="406" x2="306.5" y2="488" gradientUnits="userSpaceOnUse">
<stop stop-color="#FEC7CF"/>
<stop offset="1" stop-color="#EA90FE"/>
</linearGradient>
<linearGradient id="paint16_linear_81_212" x1="306.5" y1="406" x2="306.5" y2="488" gradientUnits="userSpaceOnUse">
<stop stop-color="#FFC8CE"/>
<stop offset="1" stop-color="#EA8FFF"/>
</linearGradient>
<linearGradient id="paint17_linear_81_212" x1="118.678" y1="486.188" x2="107.29" y2="528.689" gradientUnits="userSpaceOnUse">
<stop stop-color="#FEC7CF"/>
<stop offset="1" stop-color="#EA90FE"/>
</linearGradient>
<linearGradient id="paint18_linear_81_212" x1="118.678" y1="486.188" x2="107.29" y2="528.689" gradientUnits="userSpaceOnUse">
<stop stop-color="#FEC7CF"/>
<stop offset="1" stop-color="#EA90FE"/>
</linearGradient>
<linearGradient id="paint19_linear_81_212" x1="118.678" y1="486.188" x2="107.29" y2="528.689" gradientUnits="userSpaceOnUse">
<stop stop-color="#FEC7CF"/>
<stop offset="1" stop-color="#EA90FE"/>
</linearGradient>
<linearGradient id="paint20_linear_81_212" x1="118.678" y1="486.188" x2="107.29" y2="528.689" gradientUnits="userSpaceOnUse">
<stop stop-color="#FEC7CF"/>
<stop offset="1" stop-color="#EA90FE"/>
</linearGradient>
<linearGradient id="paint21_linear_81_212" x1="118.678" y1="486.188" x2="107.29" y2="528.689" gradientUnits="userSpaceOnUse">
<stop stop-color="#FFC8CE"/>
<stop offset="1" stop-color="#EA8FFF"/>
</linearGradient>
<linearGradient id="paint22_linear_81_212" x1="44.5515" y1="435.749" x2="36.1868" y2="466.966" gradientUnits="userSpaceOnUse">
<stop stop-color="#FEC7CF"/>
<stop offset="1" stop-color="#EA90FE"/>
</linearGradient>
<linearGradient id="paint23_linear_81_212" x1="44.5515" y1="435.749" x2="36.1868" y2="466.966" gradientUnits="userSpaceOnUse">
<stop stop-color="#FEC7CF"/>
<stop offset="1" stop-color="#EA90FE"/>
</linearGradient>
<linearGradient id="paint24_linear_81_212" x1="44.5515" y1="435.749" x2="36.1868" y2="466.966" gradientUnits="userSpaceOnUse">
<stop stop-color="#FEC7CF"/>
<stop offset="1" stop-color="#EA90FE"/>
</linearGradient>
<linearGradient id="paint25_linear_81_212" x1="44.5515" y1="435.749" x2="36.1868" y2="466.966" gradientUnits="userSpaceOnUse">
<stop stop-color="#FEC7CF"/>
<stop offset="1" stop-color="#EA90FE"/>
</linearGradient>
<linearGradient id="paint26_linear_81_212" x1="44.5515" y1="435.749" x2="36.1868" y2="466.966" gradientUnits="userSpaceOnUse">
<stop stop-color="#FFC8CE"/>
<stop offset="1" stop-color="#EA8FFF"/>
</linearGradient>
</defs>
</svg>
